HIERARCHY
ROOT Hips
{
  OFFSET 71.7574 47.5266 353.468
  CHANNELS 6 Xposition Yposition Zposition Zrotation Xrotation Yrotation
  JOINT Spine
  {
    OFFSET 0 0 0
    CHANNELS 3 Zrotation Xrotation Yrotation
    JOINT Spine1
    {
      OFFSET 19 0 0
      CHANNELS 3 Zrotation Xrotation Yrotation
      JOINT Neck
      {
        OFFSET 22.5 0.6 0
        CHANNELS 3 Zrotation Xrotation Yrotation
        JOINT Head
        {
          OFFSET 14 0.0308777 0
          CHANNELS 3 Zrotation Xrotation Yrotation
          End Site
          {
            OFFSET 17 0 0
          }
        }
      }
      JOINT LeftShoulder
      {
        OFFSET 19.8 3.7 4.3
        CHANNELS 3 Zrotation Xrotation Yrotation
        JOINT LeftArm
        {
          OFFSET 8 0 0
          CHANNELS 3 Zrotation Xrotation Yrotation
          JOINT LeftForeArm
          {
            OFFSET 15.2 0 0
            CHANNELS 3 Zrotation Xrotation Yrotation
            JOINT LeftHand
            {
              OFFSET 17.8 0 0
              CHANNELS 3 Zrotation Xrotation Yrotation
              End Site
              {
                OFFSET 7.2 0 0
              }
            }
          }
        }
      }
      JOINT RightShoulder
      {
        OFFSET 19.8 3.7 -4.3
        CHANNELS 3 Zrotation Xrotation Yrotation
        JOINT RightArm
        {
          OFFSET 8 0 0.151654
          CHANNELS 3 Zrotation Xrotation Yrotation
          JOINT RightForeArm
          {
            OFFSET 15.2 0 0
            CHANNELS 3 Zrotation Xrotation Yrotation
            JOINT RightHand
            {
              OFFSET 17.8 0 0
              CHANNELS 3 Zrotation Xrotation Yrotation
              End Site
              {
                OFFSET 7.2 0 0
              }
            }
          }
        }
      }
    }
  }
  JOINT LeftUpLeg
  {
    OFFSET 5.98425 -7.666 4.78879
    CHANNELS 3 Zrotation Xrotation Yrotation
    JOINT LeftLeg
    {
      OFFSET 16 0 0
      CHANNELS 3 Zrotation Xrotation Yrotation
      JOINT LeftFoot
      {
        OFFSET 18 0 0
        CHANNELS 3 Zrotation Xrotation Yrotation
        End Site
        {
          OFFSET 0 -10.8 0
        }
      }
    }
  }
  JOINT RightUpLeg
  {
    OFFSET 5.98425 -7.66598 -4.78879
    CHANNELS 3 Zrotation Xrotation Yrotation
    JOINT RightLeg
    {
      OFFSET 16 0 0
      CHANNELS 3 Zrotation Xrotation Yrotation
      JOINT RightFoot
      {
        OFFSET 18 0 0
        CHANNELS 3 Zrotation Xrotation Yrotation
        End Site
        {
          OFFSET 0 -10.8 0
        }
      }
    }
  }
  JOINT Tail
  {
    OFFSET 6.83696 -0.722574 0
    CHANNELS 3 Zrotation Xrotation Yrotation
    JOINT Tail1
    {
      OFFSET 12 0 0
      CHANNELS 3 Zrotation Xrotation Yrotation
      End Site
      {
        OFFSET 12 0 0
      }
    }
  }
}
MOTION
Frames:	21
Frame Time:	0.0166667
32.9534 15.3823 196.551 -4.15488 -30.729 26.1602 -136.009 -10.022 -4.77842 -46.8113 3.3191 -16.4514 -4.69901 4.67939 -35.8604 -119.292 82.7065 148.816 -106.116 -30.2432 -139.149 142.339 -3.4277 -129.187 -85.3906 -11.6565 14.0089 3.17252 -0.0630194 -9.93929 71.2756 -33.9912 40.8129 57.6311 7.4412 -34.6967 -92.0574 31.4187 -26.2801 15.4639 0.425189 2.95305 -108.66 33.8847 -29.7408 129.17 -5.24677 -3.51187 5.12546 0.345219 3.69004 159.308 6.82454 24.8659 144.606 -24.1667 2.69143 -3.80074 -13.2224 -33.6129 -12.1705 32.4699 2.03691 8.19759 -6.92481 6.81458 
32.956 15.3755 196.556 -4.15669 -30.7628 26.1999 -136.018 -9.98999 -4.71864 -46.7905 3.33391 -16.4778 -4.52543 4.64802 -35.749 -120.125 83.0641 149.439 -106.133 -30.2666 -139.147 142.296 -3.48728 -129.225 -85.4011 -11.7049 14.0468 3.0883 -0.0429379 -10.0641 71.3337 -33.945 40.8818 57.5954 7.37679 -34.7419 -92.092 31.425 -26.2515 15.5478 0.425197 2.9334 -108.772 33.9259 -29.7306 129.239 -5.25452 -3.51191 5.18337 0.354902 3.70303 159.058 6.72041 24.9159 144.659 -24.0399 2.70021 -3.62903 -13.3061 -33.694 -12.1264 32.5143 1.96334 8.20732 -6.92471 6.8216 
32.9679 15.3663 196.563 -4.03676 -30.7794 26.3462 -136.084 -9.92437 -4.54714 -46.8172 3.37354 -16.5687 -4.47008 4.59671 -35.8695 -119.278 82.7632 148.609 -106.12 -30.2643 -139.11 142.287 -3.49117 -129.214 -85.3203 -11.7352 14.0798 3.07578 -0.0447009 -10.0061 71.3599 -33.9072 40.8774 57.6334 7.39461 -34.8254 -92.0766 31.402 -26.2517 15.5054 0.425211 2.89637 -108.976 34.0102 -29.6491 129.301 -5.25648 -3.51192 5.21368 0.360979 3.71098 158.942 6.66287 24.9679 144.659 -23.9981 2.71851 -3.61683 -13.3109 -33.6949 -12.1587 32.5913 1.87217 8.21453 -6.92466 6.82488 
32.9572 15.3564 196.564 -4.02112 -30.7591 26.3659 -136.011 -9.98805 -4.66396 -46.9599 3.25735 -16.3579 -4.24526 4.62428 -35.7562 -120.607 83.0633 149.46 -106.166 -30.3336 -139.096 142.046 -3.46214 -129.178 -85.4159 -11.8685 14.1479 3.17069 -0.05814 -9.97971 71.3125 -33.961 40.8549 57.7198 7.41848 -34.9461 -92.0209 31.5095 -26.3074 15.6177 0.42526 2.76149 -108.739 33.9595 -29.7385 129.147 -5.2788 -3.52709 4.9854 0.350979 3.72267 158.88 6.6688 24.9908 144.606 -23.9502 2.72841 -3.54101 -13.3475 -33.7308 -12.193 32.5875 1.85458 8.23437 -6.92573 6.83539 
32.9527 15.3588 196.562 -3.94782 -30.6871 26.3975 -136.031 -10.0496 -4.71593 -47.0753 3.18898 -16.2819 -4.45116 4.8418 -35.6326 -121.749 83.1222 151.217 -106.247 -30.4516 -139.082 141.838 -3.40785 -129.172 -85.43 -12.0113 14.2232 3.19532 -0.0561851 -10.0091 71.2855 -33.9674 40.7908 57.7105 7.5022 -34.9658 -91.9433 31.5702 -26.3516 15.6643 0.425214 2.88691 -108.762 33.9642 -29.722 129.09 -5.35067 -3.53486 4.93882 0.349532 3.73132 158.858 6.77233 24.9933 144.593 -23.9524 2.73399 -3.58386 -13.3141 -33.6676 -12.3012 32.5605 1.83281 8.24387 -6.92697 6.85424 
32.9614 15.3627 196.566 -3.90637 -30.6501 26.4355 -135.966 -10.0264 -4.63938 -47.2181 3.24337 -16.3401 -4.43973 4.80632 -35.528 -121.559 83.1058 151.038 -106.258 -30.4985 -139.005 141.805 -3.38603 -129.061 -85.3706 -12.0668 14.2543 3.17678 -0.041 -10.0825 71.2972 -33.9639 40.8172 57.6206 7.53107 -34.8915 -91.9357 31.5204 -26.3407 15.7146 0.432659 2.87774 -108.789 34.0142 -29.7384 129.104 -5.31623 -3.53699 4.91418 0.347488 3.73072 158.705 6.83891 25.0266 144.624 -23.8614 2.74456 -3.51979 -13.3236 -33.6219 -12.3118 32.5529 1.76244 8.25126 -6.9281 6.87009 
32.9637 15.3457 196.58 -3.8796 -30.6453 26.4986 -135.895 -10.0095 -4.5098 -47.3437 3.28495 -16.436 -4.4799 4.79879 -35.3422 -121.31 82.9784 150.789 -106.262 -30.5454 -138.907 141.803 -3.39987 -128.944 -85.3608 -12.0316 14.2367 3.28125 -0.0574511 -9.99482 71.2768 -33.9841 40.8013 57.6551 7.53901 -34.8747 -91.9634 31.5233 -26.3502 15.7073 0.438272 2.96405 -108.754 34.0495 -29.7994 129.124 -5.31817 -3.53765 4.80224 0.346324 3.74735 158.568 6.81255 25.0838 144.607 -23.7805 2.76051 -3.41747 -13.3711 -33.6623 -12.2914 32.5613 1.72532 8.25744 -6.92888 6.87079 
32.9759 15.3396 196.578 -3.91814 -30.6031 26.5 -135.815 -10.0329 -4.41172 -47.455 3.32023 -16.5625 -4.54541 4.84118 -35.0551 -121.561 82.9021 150.971 -106.305 -30.6251 -138.858 141.833 -3.37339 -128.927 -85.2769 -12.007 14.2254 3.35231 -0.070863 -9.90028 71.2714 -33.9452 40.7037 57.7305 7.75581 -34.938 -91.8111 31.6383 -26.4752 15.7651 0.441931 2.84654 -108.631 34.114 -29.8518 129.082 -5.34797 -3.53718 4.77728 0.345463 3.74466 158.665 6.90662 25.1147 144.583 -23.8014 2.76958 -3.47298 -13.3383 -33.6166 -12.2613 32.5068 1.71925 8.25639 -6.92874 6.86458 
32.9811 15.3401 196.583 -3.96306 -30.5854 26.4221 -135.827 -10.0345 -4.4668 -47.3979 3.34234 -16.5701 -4.56201 4.82015 -35.1185 -120.858 82.5998 150.169 -106.285 -30.5981 -138.855 141.838 -3.34912 -128.861 -85.31 -11.9387 14.1888 3.36613 -0.0783379 -9.85591 71.2265 -33.9842 40.6575 57.6526 7.68159 -34.755 -91.918 31.5503 -26.4026 15.6651 0.445264 3.04891 -108.575 34.0982 -29.8672 129.119 -5.33278 -3.53554 4.80367 0.344831 3.73864 158.661 6.8752 25.0746 144.626 -23.8385 2.756 -3.47807 -13.3495 -33.6613 -12.2404 32.4529 1.79083 8.22486 -6.92639 6.84145 
32.9734 15.3508 196.585 -4.02678 -30.6385 26.3598 -135.854 -10.0111 -4.50937 -47.2525 3.37165 -16.5863 -4.61701 4.64437 -35.1836 -119.183 82.3355 148.542 -106.219 -30.4752 -138.932 142.02 -3.40424 -128.959 -85.3412 -11.9089 14.1547 3.31412 -0.0662897 -9.93162 71.2733 -33.9685 40.7583 57.6295 7.54266 -34.7211 -91.9949 31.5749 -26.3589 15.6686 0.447391 3.07463 -108.531 34.0539 -29.8705 129.166 -5.26454 -3.53306 4.80666 0.34436 3.72373 158.711 6.73725 25.0313 144.677 -23.9092 2.73921 -3.50374 -13.3648 -33.7444 -12.1383 32.457 1.83057 8.17814 -6.9154 6.80879 
32.9518 15.3606 196.588 -4.05376 -30.655 26.3171 -135.931 -9.96599 -4.55615 -47.0614 3.43237 -16.6288 -4.70024 4.49426 -35.1942 -118.017 82.2875 147.433 -106.188 -30.3939 -139.024 142.166 -3.45095 -128.995 -85.3714 -11.839 14.1121 3.20964 -0.0487037 -10.0274 71.3106 -33.9709 40.8704 57.6849 7.48258 -34.6602 -92.0835 31.5997 -26.3743 15.6144 0.447186 3.06259 -108.468 33.9887 -29.9107 129.13 -5.21338 -3.53054 4.82408 0.343976 3.71195 158.874 6.71886 24.9908 144.646 -24.0041 2.72761 -3.58947 -13.3373 -33.754 -12.1369 32.4496 1.8961 8.16697 -6.91933 6.79074 
32.9455 15.3635 196.586 -4.1205 -30.7127 26.2246 -135.924 -9.98648 -4.61871 -46.9581 3.4062 -16.6013 -4.75258 4.46343 -35.2192 -117.88 82.4129 147.307 -106.141 -30.329 -139.025 142.234 -3.47974 -129.014 -85.3896 -11.7714 14.0718 3.20234 -0.0588317 -9.95423 71.286 -33.9707 40.7993 57.7066 7.49371 -34.6029 -92.1458 31.3892 -26.3397 15.3289 0.443588 2.97932 -108.492 33.8934 -29.8363 129.157 -5.28162 -3.52891 4.94321 0.343605 3.71207 159.036 6.6598 24.9244 144.642 -24.0961 2.70529 -3.64819 -13.3231 -33.7769 -12.1182 32.4618 1.99326 8.16415 -6.92629 6.78634 
32.9642 15.3827 196.567 -4.19305 -30.73 26.1793 -135.92 -9.96792 -4.65465 -46.8559 3.4088 -16.5762 -4.78121 4.42317 -35.2748 -117.527 82.4049 146.952 -106.172 -30.3462 -139.084 142.226 -3.42115 -129.035 -85.3246 -11.7783 14.0697 3.13707 -0.0470813 -9.98334 71.3187 -33.9641 40.8794 57.6488 7.48785 -34.7166 -92.0198 31.6122 -26.3694 15.5941 0.431099 3.02683 -108.599 33.8994 -29.7984 129.172 -5.30472 -3.52631 5.07827 0.343188 3.69827 159.19 6.77843 24.9209 144.652 -24.1123 2.69992 -3.72199 -13.2631 -33.6579 -12.0737 32.4508 2.00469 8.17643 -6.92772 6.78674 
32.963 15.3841 196.57 -4.20197 -30.7185 26.195 -135.989 -9.95575 -4.71082 -46.7938 3.38236 -16.4978 -4.70453 4.43796 -35.3056 -117.835 82.4707 147.196 -106.191 -30.3601 -139.115 142.104 -3.44958 -129.086 -85.3738 -11.8748 14.1139 3.06916 -0.0271805 -10.1061 71.3685 -33.9267 40.9431 57.6407 7.39254 -34.8274 -92.0912 31.5488 -26.3139 15.5739 0.428669 2.95511 -108.663 33.9654 -29.853 129.245 -5.1881 -3.51614 5.12579 0.342215 3.69848 159.196 6.67905 24.9337 144.645 -24.1646 2.70159 -3.73422 -13.2892 -33.7636 -12.0705 32.4461 1.97257 8.18926 -6.92861 6.79075 
32.9575 15.3818 196.578 -4.14697 -30.6611 26.2484 -136.089 -9.95504 -4.81913 -46.7676 3.31384 -16.3263 -4.67764 4.46564 -35.3426 -118.044 82.4909 147.425 -106.181 -30.3448 -139.119 142.001 -3.45045 -129.107 -85.4524 -11.9659 14.1539 3.10446 -0.0358905 -10.0577 71.363 -33.9354 40.9459 57.5346 7.27634 -34.7249 -92.1705 31.5012 -26.2455 15.5886 0.426055 2.96387 -108.699 33.9657 -29.9069 129.211 -5.22889 -3.51944 5.07397 0.34042 3.70813 158.997 6.80925 24.9918 144.637 -24.0165 2.71898 -3.61234 -13.3124 -33.6961 -12.1607 32.4315 1.93667 8.22789 -6.92899 6.81923 
32.9571 15.3757 196.576 -4.10949 -30.6734 26.3184 -136.055 -9.9569 -4.76769 -46.8402 3.2648 -16.2746 -4.63557 4.51095 -35.2659 -118.681 82.6469 147.985 -106.19 -30.3817 -139.061 141.927 -3.44763 -129.126 -85.4659 -11.9533 14.1866 3.09738 -0.0449513 -10.0246 71.3109 -33.9861 40.9033 57.6452 7.32584 -34.8909 -92.1055 31.4907 -26.2801 15.5557 0.425249 2.89293 -108.731 34.0124 -29.8291 129.182 -5.2894 -3.52337 5.11843 0.338091 3.71223 159.106 6.79843 25.0105 144.602 -24.0729 2.72773 -3.70502 -13.2747 -33.678 -12.1733 32.4752 1.86765 8.23886 -6.92939 6.83397 
32.9611 15.3667 196.572 -4.0411 -30.6736 26.3767 -135.99 -9.97066 -4.69924 -47.0133 3.25674 -16.2846 -4.5573 4.55693 -35.1651 -119.418 82.7888 148.66 -106.229 -30.4415 -139.044 141.831 -3.42808 -129.099 -85.4314 -12.0402 14.223 3.14773 -0.0485521 -10.0593 71.3055 -33.9722 40.8585 57.6575 7.41849 -34.9158 -92.0425 31.5216 -26.3167 15.6001 0.429906 2.88871 -108.681 34.0094 -29.8279 129.137 -5.28384 -3.52585 4.94824 0.335504 3.72261 158.968 6.76944 25.032 144.588 -24.0063 2.73745 -3.62513 -13.3093 -33.7011 -12.1935 32.5059 1.82607 8.24558 -6.92977 6.83666 
32.956 15.3615 196.581 -3.93303 -30.5462 26.4436 -136.049 -9.98776 -4.79889 -47.1476 3.22148 -16.1486 -4.40374 4.4568 -35.1233 -118.976 82.6429 147.785 -106.243 -30.4794 -139 141.68 -3.43692 -129.057 -85.521 -12.1395 14.2714 3.21798 -0.0486712 -10.0544 71.2799 -33.9965 40.8366 57.6272 7.39458 -34.829 -92.101 31.508 -26.3053 15.7176 0.436084 2.88929 -108.714 34.0425 -29.9353 129.088 -5.31544 -3.52878 4.90751 0.332939 3.73698 158.697 6.93161 25.0885 144.594 -23.8655 2.75828 -3.51683 -13.3285 -33.6363 -12.3279 32.4488 1.7597 8.25983 -6.92966 6.85877 
32.9537 15.3588 196.588 -3.82526 -30.4356 26.4911 -136.134 -10.0044 -4.76171 -47.2267 3.25113 -16.2332 -4.60326 4.62512 -34.8632 -119.92 82.7712 149.273 -106.285 -30.5664 -138.932 141.611 -3.4112 -128.948 -85.4852 -12.2032 14.2928 3.25612 -0.0437753 -10.0765 71.2983 -33.9619 40.8161 57.6334 7.4834 -34.9042 -92.0429 31.6164 -26.3779 15.7631 0.44011 2.91659 -108.794 34.0857 -29.96 129.072 -5.34095 -3.5317 4.88309 0.33068 3.74791 158.652 7.11914 25.0981 144.558 -23.838 2.76841 -3.55501 -13.2835 -33.5275 -12.4545 32.3955 1.73297 8.27234 -6.93024 6.87262 
32.9673 15.3438 196.595 -3.83181 -30.4854 26.4904 -136.018 -10.0095 -4.60359 -47.3374 3.2929 -16.3858 -4.48422 4.49913 -34.6886 -119.347 82.6208 148.132 -106.324 -30.655 -138.85 141.598 -3.40052 -128.872 -85.4159 -12.2003 14.29 3.35032 -0.059128 -9.95649 71.2676 -33.983 40.7725 57.6531 7.57262 -34.907 -91.9569 31.6645 -26.406 15.7547 0.442041 3.03229 -108.714 34.1064 -29.9667 129.117 -5.28381 -3.53397 4.75023 0.329006 3.75862 158.525 6.95879 25.0954 144.564 -23.7976 2.76708 -3.43766 -13.3622 -33.6572 -12.4049 32.4277 1.75241 8.26155 -6.92865 6.87343 
32.9865 15.3471 196.577 -3.88334 -30.5231 26.4634 -135.885 -10.0089 -4.49464 -47.4213 3.34955 -16.5179 -4.72686 4.56353 -34.628 -118.669 82.2203 147.987 -106.326 -30.67 -138.821 141.669 -3.30064 -128.763 -85.27 -12.0611 14.2534 3.31233 -0.0641426 -9.89024 71.2354 -34.0155 40.7491 57.7322 7.69801 -34.949 -91.847 31.6654 -26.4661 15.7154 0.443065 3.02344 -108.721 34.1261 -29.9092 129.136 -5.28561 -3.53617 4.79492 0.328207 3.74652 158.643 7.01801 25.0866 144.58 -23.8081 2.76333 -3.49442 -13.3173 -33.5704 -12.3033 32.4306 1.75313 8.23667 -6.92003 6.85821 
